<?xml version="1.0" encoding="iso-8859-1"?>
<!-- Uploaded to: SVG Repo, www.svgrepo.com, Generator: SVG Repo Mixer Tools -->
<svg fill="#000000" height="800px" width="800px" version="1.1" id="Layer_1" xmlns="http://www.w3.org/2000/svg" xmlns:xlink="http://www.w3.org/1999/xlink" 
	 viewBox="0 0 512 512" xml:space="preserve">
<g>
	<g>
		<path d="M256,66.783c-27.618,0-50.087,22.469-50.087,50.087c0,27.618,22.469,50.087,50.087,50.087
			c27.618,0,50.087-22.469,50.087-50.087C306.087,89.252,283.618,66.783,256,66.783z M256,133.565
			c-9.206,0-16.696-7.49-16.696-16.696s7.49-16.696,16.696-16.696c9.206,0,16.696,7.49,16.696,16.696S265.206,133.565,256,133.565z"
			/>
	</g>
</g>
<g>
	<g>
		<path d="M256,345.043c-27.618,0-50.087,22.469-50.087,50.087s22.469,50.087,50.087,50.087c27.618,0,50.087-22.469,50.087-50.087
			S283.618,345.043,256,345.043z M256,411.826c-9.206,0-16.696-7.49-16.696-16.696s7.49-16.696,16.696-16.696
			c9.206,0,16.696,7.49,16.696,16.696S265.206,411.826,256,411.826z"/>
	</g>
</g>
<g>
	<g>
		<path d="M160.553,143.058c-23.939-13.826-54.594-5.616-68.421,18.333c-13.824,23.944-5.615,54.594,18.334,68.42
			c23.94,13.825,54.599,5.607,68.42-18.333C192.711,187.533,184.5,156.883,160.553,143.058z M149.968,194.783
			c-4.59,7.951-14.827,10.716-22.806,6.111c-7.949-4.59-10.717-14.827-6.112-22.806c4.58-7.932,14.811-10.725,22.807-6.111
			C151.821,176.574,154.566,186.82,149.968,194.783z"/>
	</g>
</g>
<g>
	<g>
		<path d="M401.534,282.189c-23.942-13.826-54.594-5.615-68.42,18.333c-13.826,23.945-5.614,54.595,18.333,68.42
			c23.928,13.818,54.586,5.63,68.421-18.333C433.692,326.665,425.482,296.015,401.534,282.189z M390.95,333.913
			c-4.599,7.964-14.844,10.706-22.807,6.111c-7.964-4.598-10.709-14.844-6.111-22.806c4.58-7.932,14.81-10.725,22.806-6.111
			C392.802,315.705,395.546,325.949,390.95,333.913z"/>
	</g>
</g>
<g>
	<g>
		<path d="M148.469,277.202c-26.76-7.169-54.148,8.637-61.322,35.405c-7.172,26.761,8.639,54.151,35.405,61.322
			c26.761,7.169,54.148-8.637,61.322-35.405C191.042,311.763,175.235,284.375,148.469,277.202z M151.62,329.882
			c-2.395,8.936-11.489,14.187-20.427,11.794c-8.934-2.394-14.189-11.488-11.794-20.427c2.395-8.934,11.49-14.189,20.427-11.794
			C148.762,311.85,154.013,320.945,151.62,329.882z"/>
	</g>
</g>
<g>
	<g>
		<path d="M419.868,161.391c-13.825-23.946-44.472-32.158-68.421-18.333c-23.946,13.824-32.159,44.474-18.333,68.42
			c13.804,23.91,44.434,32.18,68.42,18.333C425.478,215.988,433.694,185.34,419.868,161.391z M384.838,200.893
			c-7.961,4.597-18.207,1.854-22.806-6.111c-4.598-7.964-1.852-18.209,6.111-22.806c7.958-4.597,18.211-1.852,22.807,6.111
			C395.547,186.052,392.801,196.296,384.838,200.893z"/>
	</g>
</g>
<g>
	<g>
		<path d="M495.304,478.609H382.298C459.693,434.526,512,351.261,512,256C512,114.842,397.158,0,256,0S0,114.842,0,256
			c0,145.558,121.284,256,250.435,256h244.87c9.22,0,16.696-7.475,16.696-16.696S504.525,478.609,495.304,478.609z M33.391,256
			c0-122.746,99.862-222.609,222.609-222.609S478.609,133.254,478.609,256S378.746,478.609,256,478.609S33.391,378.746,33.391,256z"
			/>
	</g>
</g>
</svg>

